<svg xmlns="http://www.w3.org/2000/svg" width="100%" height="100%" preserveAspectRatio="xMidYMid meet" viewBox="0 0 174.7005615234375 147" overflow="visible"><defs id="SvgjsDefs1037"><linearGradient id="SvgjsLinearGradientJcaeMolzO" gradientUnits="userSpaceOnUse" x1="12.50000000000001" y1="87.5" x2="87.50000000000001" y2="12.499999999999993"><stop id="SvgjsStop1040" stop-color="#7bbde0" offset="0.05"></stop><stop id="SvgjsStop1041" stop-color="#2a82b2" offset="0.95"></stop></linearGradient></defs><g id="SvgjsG1038" transform="scale(0.6700440184408616)" opacity="1"><g id="SvgjsG1042" class="lS5YLpVAY" transform="translate(37.24714285714286, -18.62357142857143) scale(1.862357142857143)" light-content="false" non-strokable="false" fill="#ffffff"><path d="M21.667 73.809V33.867l28.33-16.188 28.337 16.188V66.13L49.997 82.321 35 73.75V41.604l14.997-8.57L65 41.604v16.788l-15.003 8.571-1.663-.95v-16.67l8.382-4.792-6.719-3.838-8.33 4.763V69.88l8.33 4.762 21.67-12.383V37.737l-21.67-12.379-21.663 12.379v39.88L49.997 90 85 70V30L49.997 10 15 30v40z"></path></g><g id="SvgjsG1043" class="text" transform="translate(129.22000122070312, 219.38857295445035) scale(1)" light-content="false" fill="#ffffff"><path d="M-96.25 -44.4L-96.25 -14.49L-118.54 -44.4L-129.22 -44.4L-129.22 0L-119.2 0L-119.2 -29.91L-96.91 0L-86.23 0L-86.23 -44.4Z M-41.68 -36.24L-41.68 -44.4L-76.87 -44.4L-76.87 0L-66.25 0L-66.25 -17.58L-44.95 -17.58L-44.95 -25.77L-66.25 -25.77L-66.25 -36.24Z M-21.82 0L-11.21 0L-11.21 -36.06L4.54 -36.06L4.54 -44.4L-37.58 -44.4L-37.58 -36.06L-21.82 -36.06Z M60.65 -44.4L47.21 -7.89L33.95 -44.4L22.7 -44.4L39.26 0L54.59 0L71.15 -44.4Z M76.16 0L86.78 0L86.78 -44.4L76.16 -44.4Z M107.63 -8.31L131.17 -38.7L131.17 -44.4L94.18 -44.4L94.18 -36.09L117.37 -36.09L93.85 -5.7L93.85 0L131.51 0L131.51 -8.31Z"></path></g></g></svg>